<?xml version="1.0" encoding="UTF-8"?>
<svg id="Layer_1" xmlns="http://www.w3.org/2000/svg" version="1.1" viewBox="0 0 365.92 475.37">
  <!-- Generator: Adobe Illustrator 29.8.6, SVG Export Plug-In . SVG Version: 2.1.1 Build 1)  -->
  <defs>
    <style>
      .st0 {
        fill: #fff;
      }
    </style>
  </defs>
  <path class="st0" d="M41.47,150.7c9.75-6.1,19.49-12.23,29.24-18.33v208.78c-9.75-6.11-19.49-12.23-29.24-18.33v-172.12M229.21,91.01c14.25,8.74,28.41,17.63,42.6,26.46,3.24,19.61,6.63,39.2,9.74,58.83,4.9-14.38,10.07-28.66,15.28-42.93,10.07,5.79,19.73,12.26,29.63,18.34v169.85c-9.75,6.12-19.5,12.22-29.25,18.34-.13-34.29.25-68.58-.19-102.85-4.3,17.43-8.04,35.01-12.17,52.49-1.76-.03-3.52-.05-5.27-.07-5.74-18.92-11.56-37.81-17.34-56.71-.07,43.03-.01,86.06-.03,129.09-11,6.89-21.99,13.79-33,20.68,0-97.18,0-194.35,0-291.52M163.45,74.25c6.55-3.84,12.65-8.61,19.52-11.8,7.6,3.68,14.44,8.91,21.74,13.18v322.26c-7.21,4.39-14.2,9.17-21.54,13.35-6.91-3.31-13.09-8.07-19.71-11.94v-154.54h-25.5v138.55c-11-6.89-22-13.78-33-20.69V110.9c10.99-6.91,22-13.8,33-20.69v111.05h25.5c0-42.34.02-84.68,0-127.01M22.96,127.82v218.88c53.32,33.46,106.67,66.88,159.99,100.33,53.34-33.43,106.66-66.88,160-100.31.01-72.97.02-145.95,0-218.92-53.34-33.43-106.66-66.88-159.99-100.31C129.63,60.94,76.28,94.36,22.96,127.82M3.96,117.41C63.62,80.02,123.34,42.71,182.95,5.24c59.63,37.47,119.35,74.78,179.01,112.18-.02,79.94.01,159.88-.01,239.81-59.76,37.18-119.36,74.64-178.97,112.05-59.65-37.38-119.22-74.88-179.01-112.03-.03-79.95,0-159.89,0-239.84"/>
</svg>