<?xml version="1.0" encoding="UTF-8"?>
<svg id="Layer_1" xmlns="http://www.w3.org/2000/svg" xmlns:xlink="http://www.w3.org/1999/xlink" version="1.1" viewBox="0 0 661.28 565.52">
  <!-- Generator: Adobe Illustrator 29.8.6, SVG Export Plug-In . SVG Version: 2.1.1 Build 1)  -->
  <defs>
    <style>
      .st0 {
        fill: none;
      }

      .st1 {
        fill: #73b6c9;
      }

      .st2 {
        fill: #f4b22b;
      }

      .st3 {
        clip-path: url(#clippath);
      }
    </style>
    <clipPath id="clippath">
      <rect class="st0" width="661.28" height="565.52"/>
    </clipPath>
  </defs>
  <g class="st3">
    <path class="st1" d="M510.22,188.76c11.06,2.67,22.29,5.1,33.22,8.29,34.51,10.1,103.23,34.93,106.82,77.18,4.27,50.28-68.8,77.01-107.27,88.8-8.84,2.71-22.7,4.71-30.26,7.74-.95.38-2.08.38-2.46,1.6,10.57,27.73,21.46,55.81,26.64,85.21,17.86,101.31-31.5,122.59-112.6,71.6-34.22-21.52-64.33-48.74-93.58-76.4-29.98,28.31-62.21,57.88-97.58,79.4-66.37,40.38-119.37,33.98-109.79-56.79,3.72-35.23,16.23-71.21,29.87-103.62-19.58-4.16-38.82-9.95-57.53-16.99-6.04,4.1-8.21,8.62-16.23,9.72-18.72,2.55-29.71-13.18-27.41-30.58-30.43-15.9-54.16-49.06-31.22-82.05,24.93-35.86,90.62-54.4,131.39-63.12-12.3-34.1-26.67-71.97-28.99-108.5-8.93-140.7,133.54-34.97,180,7.99,9.61,8.89,18.12,19.49,28.35,27.44,31.12-30.45,64.15-62,101.96-84.1,76.95-44.97,118.05-19.55,102.36,70.36-5.2,29.82-15.5,58.47-25.69,86.8M168.29,185.74c36.31-7.06,73.31-10.09,110.27-12.14l40.59-46.2c-33.97-33.8-73.32-71.63-117.57-91.5-61.69-27.7-69.07,6.95-60.04,61.04,5.09,30.51,15.27,60.25,26.76,88.79M494.2,185.77c16.87-43.93,72.32-198.04-33.33-150.86-23.04,10.29-46.71,27.83-66.12,43.88-17.95,14.84-35.03,31.07-51.37,47.62-.47,2.41,14.69,17.27,17.36,20.34,7.89,9.07,14.89,19.07,24.19,26.81,36.56,2.8,73.24,5.4,109.27,12.21M361.22,172.76l-30.36-32.92-30.64,33.92,61-1ZM280.43,371.55c33.16,2.11,66.53,1.51,99.77.7,24.46-26.27,43.92-56.61,63.53-86.55v-2.87c-21.25-32.32-43.25-64.2-68.52-93.55l-88-.02c-25.43,29.72-48.82,61.57-68.93,95.01,18.41,30.48,39.74,59.51,62.15,87.28M265.22,189.78c-16.09,1.58-32.3,2.29-48.37,4.11-10.35,1.17-30.99,2.96-40.08,5.92-1.03.34-1.86.3-2.52,1.45l33.99,67.51,56.99-78.99ZM488.22,199.77l-89.99-10,55,78.99,15.51-26.97c6.86-13.82,13.95-27.58,19.47-42.02M159.13,203.85c-3.1-2.24-61.42,16.06-69.18,19.15-18.52,7.38-58.59,28.51-62.29,49.71-3.91,22.39,16.71,38.24,33.23,48.9,16.1-11.16,36.68-1.24,37.91,18.27,19.89,7.49,40.38,13.4,61.4,16.88,9.76-25.71,25.63-48.88,37.94-73.49-13.1-26.4-28.34-51.9-39.02-79.42M504.8,203.88l-41.41,80.22c14.53,23.37,27.56,47.57,39.83,72.21,1.72,1.08,6.71-.57,9.02-1.04,33.62-6.86,106.21-30.65,120.48-64.52,10.21-24.25-13.58-42.32-31.81-53.16-29.35-17.44-63.05-26.2-96.1-33.71M258.22,370.76l-50.98-70.99-32.01,60.99,82.99,10ZM455.21,299.77l-50.98,70.99c27.88-1.09,55.48-5.71,82.99-10l-32.01-60.99ZM494.15,374.8c-33.97,6.49-68.35,10.9-102.98,12.42-3.47,1.07-25.88,29.41-30.43,34.57-5.91,6.7-12.15,13.19-18.5,19.49,22.79,22.78,47.31,44.71,73.67,63.31,21.23,14.98,63.79,42.86,90.29,33.66,25.99-9.01,18.58-59.81,14.7-80.66-5.33-28.65-16.4-55.75-26.76-82.79M168.87,375.86c-1.86.64-13.19,31.88-14.68,36.37-11.66,35.13-42.63,142.36,28.67,125.67,37.2-8.71,87.06-49.8,115.38-75.61,2.76-2.51,20.51-18.81,20.88-20.22.72-2.73-10.16-11.78-12.41-14.29-11.82-13.17-23.07-26.99-34.48-40.52-34.64-2.2-69.12-5.88-103.36-11.4M367.22,387.77l-73,.51,37.37,40.42c7.7-7.28,15.2-14.92,22.15-22.91,1.72-1.98,14.7-16.72,13.48-18.01"/>
    <rect class="st2" x="268.23" y="285.7" width="125.99" height="16.41"/>
    <path class="st2" d="M326.83,212.66l-71.71,62.93c-4.62,4.06-1.75,11.67,4.4,11.67h143.42c6.15,0,9.02-7.62,4.4-11.67l-71.71-62.93c-2.51-2.21-6.28-2.21-8.79,0"/>
    <path class="st2" d="M102.41,339.81c0,14.32-11.61,25.93-25.93,25.93s-25.94-11.61-25.94-25.93,11.61-25.93,25.94-25.93,25.93,11.61,25.93,25.93"/>
    <path class="st2" d="M552.76,101.93c0,14.32-11.61,25.93-25.93,25.93s-25.93-11.61-25.93-25.93,11.61-25.93,25.93-25.93,25.93,11.61,25.93,25.93"/>
    <path class="st2" d="M420.99,499.35c0,14.32-11.61,25.93-25.93,25.93s-25.93-11.61-25.93-25.93,11.61-25.93,25.93-25.93,25.93,11.61,25.93,25.93"/>
  </g>
  <rect class="st2" x="268.23" y="285.7" width="48.34" height="60.33"/>
  <rect class="st2" x="346.1" y="285.7" width="48.34" height="60.33"/>
</svg>