<?xml version="1.0" encoding="UTF-8"?>
<svg id="Layer_1" xmlns="http://www.w3.org/2000/svg" version="1.1" viewBox="0 0 1895.81 741.69">
  <!-- Generator: Adobe Illustrator 29.8.7, SVG Export Plug-In . SVG Version: 2.1.1 Build 1)  -->
  <path d="M1713.08,441.81v-248.31h65.59v356.06c-27.45-1.75-59.92,7.31-82.26-13.79l-166.05-229.84v243.62h-65.59V193.5c49.14-3.44,66.99-2.56,98.52,35l149.79,213.3Z"/>
  <path d="M345.04,254.41h-166.32c-1.66,0-25.57,6.87-29.11,8.37-70.93,30.08-70.4,185.37-3.25,216.07,4.5,2.06,29.59,9.81,32.36,9.81h96.04v-84.33h-105.41c-11.12-9.28-10.97-59.7-.03-64.32l173.36,3.21c-1.62,5.6,2.36,13.1,2.36,16.61v182.72l-7.03,7.03h-178.03c-153.63,0-178.54-259.21-69.49-331.86,62.66-41.75,174.16-18.2,246.87-23.55,14.53,4.75,5.14,46.99,7.68,60.25Z"/>
  <path d="M757.33,549.57V193.5h189.74c183.55,0,174.7,356.06,9.37,356.06h-199.11ZM827.6,493.35h114.78c2.41,0,31.13-13.58,34.96-16.58,41.52-32.58,40.02-141.9,16.82-185.12-7.86-14.65-35.51-41.93-51.77-41.93h-114.78v243.62Z"/>
  <path d="M1061.86,549.57l142.15-333.38c14.76-27.61,57.91-26.35,85.25-23.03,19.23,2.34,127.19,317.89,152.08,356.36-19.81-2.5-55.02,5.55-71.69-4.38-11.84-7.05-29.02-66.19-35.53-81.82l-159.85-.45-44.48,86.7h-67.93ZM1310.17,404.33c-21.1-38.42-31.94-85.94-51.36-124.33-2.24-4.43-2.96-11.11-9.49-11.53l-56.28,135.85h117.13Z"/>
  <path d="M560.56,193.5v231.91c0,17.4,15.11,44.66,31.49,52.84,3.31,1.65,30.09,10.41,31.76,10.41h105.41v60.91h-128.84c-5.54,0-35.64-10-43.05-13.17-56.63-24.23-63.87-73.43-67.24-129.53-4.02-66.9,2.82-138.31.85-205.68,4.88-14.93,55.34-4.8,69.62-7.68Z"/>
  <path d="M457.49,193.5v344.35c0,1.15,3.78,2.78,3.62,4.69l-6.52,6.47-62.69.56V193.5h65.59Z"/>
  <path d="M1861.7,253.09c-31.34,31.26-82.32-21.17-45.38-52.38,31.98-27.02,76.5,21.33,45.38,52.38ZM1825.57,245.02c-3.94-26.78,3.86-54.66,27.72-25.15-19.17,25.11,17.21,36.4,8.75.45-7.08-30.06-55.55-22.7-50.68,12.76,2.53,18.43,32.4,32.1,42.28,12.07-11.25,1.87-12.54-13.11-16.45-14.19-13.37-3.7-1.39,15.41-11.61,14.06Z"/>
</svg>